<?xml version="1.0" encoding="UTF-8"?>
<svg version="1.1" xmlns="http://www.w3.org/2000/svg" width="32" height="32">
<path d="M0 0 C10.56 0 21.12 0 32 0 C32 10.56 32 21.12 32 32 C21.44 32 10.88 32 0 32 C0 21.44 0 10.88 0 0 Z " fill="#FAF8F6" transform="translate(0,0)"/>
<path d="M0 0 C1.0725 0.165 2.145 0.33 3.25 0.5 C7.03028752 1.08810915 7.03028752 1.08810915 11 1 C12.32 1 13.64 1 15 1 C15 1.99 15 2.98 15 4 C13.35 4 11.7 4 10 4 C12.76264289 4.59732819 15.16032769 5 18 5 C18 5.99 18 6.98 18 8 C14.03546121 8.74335102 10.7523018 9.08552193 6.75 8.5 C3.07575133 7.73095217 3.07575133 7.73095217 0 9 C0 6.03 0 3.06 0 0 Z " fill="#A6C1D4" transform="translate(7,16)"/>
<path d="M0 0 C2.475 0.99 2.475 0.99 5 2 C5.04254356 3.99954746 5.04080783 6.00041636 5 8 C4 9 4 9 1.4375 9.0625 C0.633125 9.041875 -0.17125 9.02125 -1 9 C-0.33333333 7.66666667 0.33333333 6.33333333 1 5 C1.66 5 2.32 5 3 5 C2.67 4.67 2.34 4.34 2 4 C1.34 4 0.68 4 0 4 C0 4.66 0 5.32 0 6 C-4.38461538 9 -4.38461538 9 -7 9 C-8.33783393 8.68521554 -9.67203709 8.35412344 -11 8 C-11.625 5.625 -11.625 5.625 -12 3 C-10 1 -10 1 -7.625 0.875 C-6.75875 0.91625 -5.8925 0.9575 -5 1 C-3.68 1 -2.36 1 -1 1 C-0.67 0.67 -0.34 0.34 0 0 Z " fill="#7ECBDD" transform="translate(19,6)"/>
<path d="M0 0 C0.66 0.66 1.32 1.32 2 2 C4.84297674 2.10090813 7.62891177 1.93054555 10.46875 1.77734375 C11.72171875 1.88755859 11.72171875 1.88755859 13 2 C13.99 3.485 13.99 3.485 15 5 C8.07 5 1.14 5 -6 5 C-6 4.67 -6 4.34 -6 4 C-4.35 4 -2.7 4 -1 4 C-0.67 2.68 -0.34 1.36 0 0 Z " fill="#D6E5EA" transform="translate(12,22)"/>
<path d="M0 0 C1.0725 0.165 2.145 0.33 3.25 0.5 C7.03028752 1.08810915 7.03028752 1.08810915 11 1 C12.32 1 13.64 1 15 1 C15 1.99 15 2.98 15 4 C10.05 4 5.1 4 0 4 C0 2.68 0 1.36 0 0 Z " fill="#7AA5C4" transform="translate(7,16)"/>
<path d="M0 0 C1.32 0.33 2.64 0.66 4 1 C3.67 1.99 3.34 2.98 3 4 C2.34 3.67 1.68 3.34 1 3 C1.33 3.99 1.66 4.98 2 6 C1.401875 6.268125 0.80375 6.53625 0.1875 6.8125 C-1.97224808 7.98493467 -3.35790256 9.19369282 -5 11 C-5 10.34 -5 9.68 -5 9 C-6.65 9.33 -8.3 9.66 -10 10 C-10 9.34 -10 8.68 -10 8 C-9.01 8 -8.02 8 -7 8 C-6.67 7.01 -6.34 6.02 -6 5 C-5.01 5 -4.02 5 -3 5 C-2.01 4.67 -1.02 4.34 0 4 C0 2.68 0 1.36 0 0 Z " fill="#D9E7EC" transform="translate(19,8)"/>
<path d="M0 0 C2.475 0.99 2.475 0.99 5 2 C5.04254356 3.99954746 5.04080783 6.00041636 5 8 C4 9 4 9 1.4375 9.0625 C0.633125 9.041875 -0.17125 9.02125 -1 9 C-0.33333333 7.66666667 0.33333333 6.33333333 1 5 C1.66 5 2.32 5 3 5 C3 4.34 3 3.68 3 3 C1.35 3 -0.3 3 -2 3 C-1.34 2.01 -0.68 1.02 0 0 Z " fill="#5EAAD0" transform="translate(19,6)"/>
<path d="M0 0 C2.31 0 4.62 0 7 0 C7 0.99 7 1.98 7 3 C1.25 4.125 1.25 4.125 -1 3 C-0.67 2.01 -0.34 1.02 0 0 Z " fill="#82ABC8" transform="translate(18,21)"/>
</svg>
